<?xml version="1.0" encoding="UTF-8" standalone="no"?>
<!-- Created with Inkscape (http://www.inkscape.org/) -->

<svg
   xmlns:dc="http://purl.org/dc/elements/1.1/"
   xmlns:cc="http://creativecommons.org/ns#"
   xmlns:rdf="http://www.w3.org/1999/02/22-rdf-syntax-ns#"
   xmlns:svg="http://www.w3.org/2000/svg"
   xmlns="http://www.w3.org/2000/svg"
   xmlns:sodipodi="http://sodipodi.sourceforge.net/DTD/sodipodi-0.dtd"
   xmlns:inkscape="http://www.inkscape.org/namespaces/inkscape"
   width="2160"
   height="1620"
   id="svg3914"
   version="1.1"
   inkscape:version="0.48.2 r9819"
   sodipodi:docname="SFE_Logo.svg">
  <defs
     id="defs3916" />
  <sodipodi:namedview
     id="base"
     pagecolor="#ffffff"
     bordercolor="#666666"
     borderopacity="1.0"
     inkscape:pageopacity="0.0"
     inkscape:pageshadow="2"
     inkscape:zoom="7.919596"
     inkscape:cx="80.643759"
     inkscape:cy="151.80027"
     inkscape:document-units="mm"
     inkscape:current-layer="layer1"
     showgrid="true"
     units="mm"
     inkscape:window-width="1920"
     inkscape:window-height="996"
     inkscape:window-x="-8"
     inkscape:window-y="-8"
     inkscape:window-maximized="1"
     inkscape:snap-grids="false"
     inkscape:object-nodes="true">
    <inkscape:grid
       type="xygrid"
       id="grid3922"
       empspacing="4"
       visible="true"
       enabled="true"
       snapvisiblegridlinesonly="true"
       units="mm"
       spacingx="0.5mm"
       spacingy="0.5mm" />
  </sodipodi:namedview>
  <metadata
     id="metadata3919">
    <rdf:RDF>
      <cc:Work
         rdf:about="">
        <dc:format>image/svg+xml</dc:format>
        <dc:type
           rdf:resource="http://purl.org/dc/dcmitype/StillImage" />
        <dc:title />
      </cc:Work>
    </rdf:RDF>
  </metadata>
  <g
     inkscape:label="Layer 1"
     inkscape:groupmode="layer"
     id="layer1"
     transform="translate(0,567.64025)">
    <path
       d="m 274.19369,907.61848 10.2819,0 0,10.0844 -10.2819,0 0,-10.0844 z"
       style="fill:#000000;stroke:#140000;stroke-width:0.35433070999999999;stroke-miterlimit:4;stroke-opacity:1;stroke-dasharray:none;fill-opacity:1"
       id="path12"
       inkscape:connector-curvature="0" />
    <path
       inkscape:connector-curvature="0"
       id="path24"
       style="fill:#000000;stroke:#140000;stroke-width:0.35433070999999999;stroke-miterlimit:4;stroke-opacity:1;stroke-dasharray:none;fill-opacity:1"
       d="m 310.47269,895.76533 c -0.58885,-3.86423 -2.88087,-5.82829 -6.87554,-5.82829 -5.95927,0 -7.92439,6.02475 -7.92439,11.00172 0,4.91092 1.89963,10.67432 7.72793,10.67432 4.38705,0 6.81058,-2.685 7.39943,-6.8756 l 8.97164,0 c -1.24424,8.9706 -7.33448,13.8821 -16.30559,13.8821 -10.21641,0 -17.09249,-7.2035 -17.09249,-17.35339 0,-10.54331 6.28723,-18.33566 17.28895,-18.33566 7.98935,0 15.38878,4.1906 15.9132,12.8348 l -9.10314,0 z" />
    <path
       inkscape:connector-curvature="0"
       id="path28"
       style="fill:#000000;stroke:#140000;stroke-width:0.35433071999999999;stroke-miterlimit:4;stroke-opacity:1;stroke-dasharray:none;fill-opacity:1"
       d="m 339.4828,911.61288 c 6.35218,0 8.25129,-5.3699 8.25129,-10.8053 0,-5.43538 -1.89911,-10.87075 -8.25129,-10.87075 l 0,-7.00651 c 10.67428,0 17.55036,7.072 17.55036,17.87726 0,10.7398 -6.87608,17.8118 -17.55036,17.8118 -10.6088,0 -17.48488,-7.072 -17.48488,-17.8118 0,-10.80526 6.87608,-17.87726 17.48488,-17.87726 l 0,7.00651 c -6.2867,0 -8.18581,5.43537 -8.18581,10.87075 0,5.4354 1.89911,10.8053 8.18581,10.8053"
       sodipodi:nodetypes="csccsssccsc" />
    <path
       inkscape:connector-curvature="0"
       id="path32"
       style="fill:#000000;stroke:#140000;stroke-width:0.35433070999999999;stroke-miterlimit:4;stroke-opacity:1;stroke-dasharray:none;fill-opacity:1"
       d="m 360.04506,883.84643 8.77464,0 0,4.58458 0.13151,0 c 2.42247,-3.47078 5.89378,-5.50086 10.34685,-5.50086 4.25662,0 8.05483,1.50566 9.88792,5.63184 2.03061,-2.94689 5.50086,-5.63184 10.21642,-5.63184 7.20297,0 12.37693,3.33928 12.37693,12.11446 l 0,22.65887 -9.29907,0 0,-19.18756 c 0,-4.51856 -0.39292,-8.25129 -5.69732,-8.25129 -5.23891,0 -6.22174,4.38706 -6.22174,8.57872 l 0,18.86013 -9.29854,0 0,-18.9911 c 0,-3.92972 0.26194,-8.44775 -5.63183,-8.44775 -1.83362,0 -6.2867,1.17929 -6.2867,7.79235 l 0,19.6465 -9.29907,0 0,-33.85705 z" />
    <path
       inkscape:connector-curvature="0"
       id="path36"
       style="fill:#000000;stroke:#140000;stroke-width:0.35433070999999999;stroke-miterlimit:4;stroke-opacity:1;stroke-dasharray:none;fill-opacity:1"
       d="m 24.572707,907.02188 c 0,3.8807 3.440965,5.5381 6.937834,5.5381 2.544919,0 5.919334,-1.0158 5.919334,-4.1964 0,-2.7382 -3.81738,-3.7573 -10.24623,-5.0893 -5.282571,-1.2145 -10.433637,-2.93363 -10.433637,-8.78162 0,-8.40302 7.247696,-10.56514 14.311711,-10.56514 7.132164,0 13.810182,2.41554 14.512963,10.50072 l -8.587773,0 c -0.260348,-3.5006 -2.931449,-4.46106 -6.174358,-4.46106 -2.039662,0 -5.033403,0.32211 -5.033403,3.06029 0,3.24025 5.161714,3.6896 10.251021,4.89444 5.278313,1.21337 10.434702,3.12152 10.434702,9.22987 0,8.6543 -7.574063,11.4516 -15.020881,11.4516 -7.6305,0 -15.136947,-2.8585 -15.457458,-11.5815 l 8.586175,0 z" />
    <path
       inkscape:connector-curvature="0"
       id="path40"
       style="fill:#000000;stroke:#140000;stroke-width:0.35433071999999999;stroke-miterlimit:4;stroke-opacity:1;stroke-dasharray:none;fill-opacity:1"
       d="m 74.506421,901.35979 c 0,-5.27831 -2.09663,-10.62424 -7.884991,-10.62424 l 1.970986,-6.80792 c 10.305855,0 14.953796,8.33541 14.953796,17.68612 0,8.78473 -4.774655,16.98973 -14.446414,16.98973 -4.010644,0 -7.634758,-1.7191 -9.859167,-4.9589 l -0.132038,0 0,23.6859 -9.034996,-8.0383 0,-42.94262 8.592031,-1.53281 0,4.19965 0.127246,0 c 2.229205,-3.56555 5.726069,-5.08877 9.799542,-5.08877 l -1.970986,6.80792 c -5.920931,0 -7.828556,5.2847 -7.828556,10.62424 0,5.34269 2.030612,10.43209 7.889251,10.43209 5.919333,0 7.824296,-5.0894 7.824296,-10.43209"
       sodipodi:nodetypes="cccssccccccccccssc" />
    <path
       inkscape:connector-curvature="0"
       id="path44"
       style="fill:none;stroke:#140000;stroke-width:0.35433072;stroke-miterlimit:4;stroke-opacity:1;stroke-dasharray:none"
       d="m 95.175482,908.36348 c 0,3.3078 2.61094,4.1969 5.544518,4.1969 7.05869,0 7.31318,-5.5386 7.31318,-7.5703 l 0,-3.37654 c -1.52748,1.33844 -4.70863,1.40074 -7.50698,1.91454 -2.799938,0.5021 -5.350718,1.5275 -5.350718,4.8354 l -9.02914,0.3742 c 0.12245,-14.94791 22.264318,-6.93194 21.886838,-14.30955 0,-3.81951 -2.67642,-4.46106 -5.85278,-4.46106 -3.501658,0 -5.665378,1.40716 -5.981098,4.96845 l -9.04032,0 c 0.50952,-8.39983 8.08305,-11.00811 15.464378,-11.00811 6.55557,0 14.44961,1.462 14.44961,9.34859 l 0,17.12228 c 0,2.9884 0.31572,5.9806 1.14149,7.3159 l -9.15799,0 c -0.32051,-1.0191 -0.57394,-2.1025 -0.64581,-3.1785 -2.85532,2.9895 -6.99427,4.0676 -11.071468,4.0676 -6.29521,0 -11.19285,-3.1135 -11.19285,-9.8656 z"
       sodipodi:nodetypes="csscccccsccssscccscc" />
    <path
       inkscape:connector-curvature="0"
       id="path48"
       style="fill:#000000;stroke:#140000;stroke-width:0.35433070999999999;stroke-miterlimit:4;stroke-opacity:1;stroke-dasharray:none;fill-opacity:1"
       d="m 122.18778,886.34935 8.59256,-1.53281 0,6.11153 0.12246,0 c 1.72128,-4.13895 5.98535,-7.00066 10.50072,-7.00066 0.70278,0 1.33901,0.12991 1.97577,0.31625 l 0,8.39664 c -0.83003,-0.18262 -2.16371,-0.31572 -3.2477,-0.31572 -6.67802,0 -8.90828,4.7081 -8.90828,10.5657 l 0,14.8239 -9.03553,0 0,-31.36483 z" />
    <path
       inkscape:connector-curvature="0"
       id="path52"
       style="fill:#000000;stroke:#140000;stroke-width:0.35433070999999999;stroke-miterlimit:4;stroke-opacity:1;stroke-dasharray:none;fill-opacity:1"
       d="m 146.86998,877.23704 9.03553,-4.95567 0,24.37639 11.39038,-11.84133 10.68972,0 -12.41047,12.09582 13.80432,20.80183 -10.94368,0 -9.02914,-14.6999 -3.50113,3.3755 0,11.3244 -9.03553,0 0,-40.47704 z" />
    <path
       inkscape:connector-curvature="0"
       id="path56"
       style="fill:#000000;stroke:#140000;stroke-width:0.35433070999999999;stroke-miterlimit:4;stroke-opacity:1;stroke-dasharray:none;fill-opacity:1"
       d="m 184.87697,890.85923 -8.91148,0 6.15786,-6.04285 2.75362,0 0,-2.54013 c 0,-5.85704 3.62997,-9.99493 11.01077,-9.99493 1.58658,0 3.2461,0.19166 4.77093,0.25396 l 0,6.74936 c -1.08186,-0.13311 -2.2308,-0.1954 -3.30574,-0.1954 -2.48422,0 -3.44096,1.01903 -3.44096,3.75669 l 0,1.97045 6.23505,0 0,6.04285 -6.23505,0 0,26.85475 -9.035,0 0,-26.85475 z" />
    <path
       inkscape:connector-curvature="0"
       id="path60"
       style="fill:#000000;stroke:#140000;stroke-width:0.35433070999999999;stroke-miterlimit:4;stroke-opacity:1;stroke-dasharray:none;fill-opacity:1"
       d="m 233.54621,917.71428 -8.59256,0 0,-4.5841 -0.19114,0 c -2.2867,3.754 -6.23505,5.4732 -10.05456,5.4732 -9.6084,0 -12.02395,-5.4045 -12.02395,-13.5477 l 0,-20.23904 9.03767,0 0,18.57794 c 0,5.4119 1.52748,8.0809 5.78676,8.0809 4.90296,0 7.00013,-2.7377 7.00013,-9.4157 l 0,-17.24314 9.03766,0 0,32.89764 z" />
    <path
       inkscape:connector-curvature="0"
       id="path64"
       style="fill:#000000;stroke:#140000;stroke-width:0.35433070999999999;stroke-miterlimit:4;stroke-opacity:1;stroke-dasharray:none;fill-opacity:1"
       d="m 238.53654,884.81659 8.58937,0 0,4.58085 0.1922,0 c 2.28883,-3.75082 6.23186,-5.46998 10.0535,-5.46998 9.6084,0 12.02501,5.40822 12.02501,13.54824 l 0,20.23848 -9.03553,0 0,-18.57843 c 0,-5.41088 -1.53387,-8.08411 -5.79208,-8.08411 -4.89764,0 -6.99108,2.73819 -6.99108,9.42206 l 0,17.24048 -9.04139,0 0,-32.89759 z" />
    <path
       inkscape:connector-curvature="0"
       id="path68"
       style="fill:#000000;stroke:#140000;stroke-width:0.35433070999999999;stroke-miterlimit:4;stroke-opacity:1;stroke-dasharray:none;fill-opacity:1"
       d="m 197.68755,828.35153 c 0,0 0.83695,3.54745 -1.84054,4.03886 -1.8645,0.33329 -4.87102,-1.51577 -6.38626,-3.36057 -1.86556,-2.27498 -1.62971,-4.06282 -0.17995,-5.65153 2.18288,-2.40969 5.91188,-1.47903 5.91188,-1.47903 0,0 -6.83402,-6.00133 -13.96032,-1.08505 -6.34314,4.36789 -4.52229,10.32076 1.19792,15.51336 5.16491,4.69692 1.04512,9.84532 -4.15653,9.17448 -3.56235,-0.45095 -5.01743,-3.31159 -4.16451,-5.06694 0.74005,-1.50299 3.29509,-2.42513 3.29509,-2.42513 0,0 -2.93731,-1.19526 -6.39478,0.10915 -3.10395,1.17023 -5.66857,3.73858 -5.46146,10.16583 l 0,29.81709 c 0,0 3.2099,-3.9606 6.98043,-7.98775 4.23,-4.53826 6.15998,-7.60973 10.49965,-7.24823 8.2119,0.50792 14.15093,-3.14068 18.18553,-8.99347 7.75349,-11.2594 1.68242,-23.83918 -3.52615,-25.52107" />
    <path
       style="fill:none;fill-opacity:1;fill-rule:nonzero;stroke:#140000;stroke-width:3.54330709;stroke-linecap:round;stroke-linejoin:round;stroke-miterlimit:4;stroke-opacity:1;stroke-dasharray:none;stroke-dashoffset:5.38582692000000040"
       d="m 13.928571,1517.8571 382.142859,-2.5"
       id="path3770"
       inkscape:connector-curvature="0"
       transform="translate(0,-567.64025)" />
  </g>
</svg>
